<svg data-v-423bf9ae="" xmlns="http://www.w3.org/2000/svg" viewBox="0 0 482 90" class="iconLeft"><!----><!----><!----><g data-v-423bf9ae="" id="85aa0ef9-81f9-43f5-a26a-2ac940faff85" fill="#ffffff" transform="matrix(5.240174759780263,0,0,5.240174759780263,108.48034688492291,2.947596633446345)"><path d="M4.42 13.75Q3.23 13.75 2.11 13.45Q0.99 13.16 0.29 12.67L0.29 12.67L1.20 10.63Q1.86 11.06 2.73 11.33Q3.60 11.59 4.44 11.59L4.44 11.59Q6.03 11.59 6.03 10.79L6.03 10.79Q6.03 10.37 5.58 10.17Q5.12 9.97 4.12 9.74L4.12 9.74Q3.01 9.51 2.27 9.23Q1.53 8.96 0.99 8.36Q0.46 7.76 0.46 6.73L0.46 6.73Q0.46 5.84 0.95 5.12Q1.44 4.40 2.42 3.98Q3.39 3.56 4.80 3.56L4.80 3.56Q5.77 3.56 6.71 3.77Q7.64 3.99 8.36 4.41L8.36 4.41L7.50 6.47Q6.10 5.71 4.79 5.71L4.79 5.71Q3.96 5.71 3.58 5.96Q3.21 6.20 3.21 6.59L3.21 6.59Q3.21 6.99 3.65 7.18Q4.10 7.38 5.10 7.59L5.10 7.59Q6.22 7.83 6.95 8.10Q7.69 8.37 8.22 8.97Q8.76 9.56 8.76 10.58L8.76 10.58Q8.76 11.47 8.27 12.18Q7.78 12.89 6.80 13.32Q5.82 13.75 4.42 13.75L4.42 13.75ZM14.85 5.84Q16.27 5.84 17.13 6.68Q17.99 7.52 17.99 9.21L17.99 9.21L17.99 13.55L15.33 13.55L15.33 9.65Q15.33 8.09 14.08 8.09L14.08 8.09Q13.40 8.09 12.98 8.54Q12.57 8.99 12.57 9.88L12.57 9.88L12.57 13.55L9.91 13.55L9.91 3.16L12.57 3.16L12.57 6.66Q13.01 6.26 13.59 6.05Q14.18 5.84 14.85 5.84L14.85 5.84ZM22.89 5.84Q24.78 5.84 25.77 6.70Q26.77 7.56 26.77 9.34L26.77 9.34L26.77 13.55L24.29 13.55L24.29 12.57Q23.72 13.68 22.05 13.68L22.05 13.68Q21.17 13.68 20.52 13.37Q19.88 13.06 19.55 12.54Q19.22 12.01 19.22 11.34L19.22 11.34Q19.22 10.26 20.05 9.67Q20.87 9.07 22.60 9.07L22.60 9.07L24.11 9.07Q24.04 7.87 22.50 7.87L22.50 7.87Q21.95 7.87 21.39 8.04Q20.83 8.22 20.44 8.53L20.44 8.53L19.54 6.72Q20.17 6.30 21.08 6.07Q21.98 5.84 22.89 5.84L22.89 5.84ZM22.79 12.00Q23.25 12.00 23.60 11.77Q23.95 11.55 24.11 11.12L24.11 11.12L24.11 10.46L22.96 10.46Q21.80 10.46 21.80 11.23L21.80 11.23Q21.80 11.58 22.06 11.79Q22.33 12.00 22.79 12.00L22.79 12.00ZM30.98 6.87Q31.39 6.36 32.04 6.10Q32.69 5.84 33.53 5.84L33.53 5.84L33.53 8.23Q33.17 8.19 32.93 8.19L32.93 8.19Q32.07 8.19 31.59 8.65Q31.11 9.11 31.11 10.07L31.11 10.07L31.11 13.55L28.45 13.55L28.45 5.96L30.98 5.96L30.98 6.87ZM38.36 13.68Q37.14 13.68 36.16 13.17Q35.18 12.67 34.63 11.77Q34.08 10.88 34.08 9.74L34.08 9.74Q34.08 8.62 34.63 7.73Q35.18 6.83 36.16 6.33Q37.13 5.84 38.36 5.84L38.36 5.84Q39.59 5.84 40.57 6.33Q41.55 6.83 42.10 7.72Q42.64 8.61 42.64 9.74L42.64 9.74Q42.64 10.88 42.10 11.77Q41.55 12.67 40.57 13.17Q39.59 13.68 38.36 13.68L38.36 13.68ZM38.36 11.56Q39.06 11.56 39.51 11.08Q39.96 10.60 39.96 9.74L39.96 9.74Q39.96 8.90 39.51 8.43Q39.06 7.95 38.36 7.95L38.36 7.95Q37.66 7.95 37.21 8.43Q36.76 8.90 36.76 9.74L36.76 9.74Q36.76 10.60 37.21 11.08Q37.66 11.56 38.36 11.56L38.36 11.56ZM43.88 13.55L43.88 3.16L46.54 3.16L46.54 13.55L43.88 13.55ZM48.26 13.55L48.26 5.96L50.92 5.96L50.92 13.55L48.26 13.55ZM49.59 5.12Q48.86 5.12 48.41 4.72Q47.96 4.31 47.96 3.71L47.96 3.71Q47.96 3.11 48.41 2.70Q48.86 2.30 49.59 2.30L49.59 2.30Q50.32 2.30 50.76 2.68Q51.21 3.07 51.21 3.67L51.21 3.67Q51.21 4.30 50.76 4.71Q50.32 5.12 49.59 5.12L49.59 5.12ZM57.58 5.84Q59.00 5.84 59.86 6.68Q60.72 7.52 60.72 9.21L60.72 9.21L60.72 13.55L58.06 13.55L58.06 9.65Q58.06 8.09 56.81 8.09L56.81 8.09Q56.13 8.09 55.71 8.54Q55.30 8.99 55.30 9.88L55.30 9.88L55.30 13.55L52.64 13.55L52.64 5.96L55.17 5.96L55.17 6.79Q55.62 6.33 56.24 6.08Q56.85 5.84 57.58 5.84L57.58 5.84ZM67.96 13.55L65.83 10.89L65.04 11.69L65.04 13.55L62.38 13.55L62.38 3.16L65.04 3.16L65.04 8.61L67.76 5.96L70.91 5.96L67.76 9.21L71.18 13.55L67.96 13.55Z"></path></g><!----><g data-v-423bf9ae="" id="28505cc9-edbd-4b4a-b0fa-e9e7222d14dc" transform="matrix(2.8125,0,0,2.8125,0,0)" stroke="none" fill="#E6AD04"><path d="M16 32c8.837 0 16-7.163 16-16S24.837 0 16 0 0 7.163 0 16s7.163 16 16 16zM14.817 6.421h2v8.886h8.887v2H14.817V6.421zm-5.959.437h2v14.283h14.283v2H8.858V6.858z"></path></g><!----></svg>